<?xml version="1.0" standalone="no"?>
<!DOCTYPE svg PUBLIC "-//W3C//DTD SVG 1.1//EN" "http://www.w3.org/Graphics/SVG/1.1/DTD/svg11.dtd">
<svg xmlns="http://www.w3.org/2000/svg">
<metadata>Generated by Fontastic.me</metadata>
<defs>
<font id="vivid-icons" horiz-adv-x="512">
<font-face font-family="vivid-icons" units-per-em="512" ascent="480" descent="-32"/>
<missing-glyph horiz-adv-x="512" />

<glyph glyph-name="arrow-down" unicode="&#57344;" d="M360 333c-3 5-9 8-16 8l-176 0c-7 0-13-3-16-8-4-6-3-12 0-17l88-137c4-5 10-8 16-8 6 0 12 3 16 8l88 137c3 5 4 11 0 17z"/>
<glyph glyph-name="arrow-up" unicode="&#57346;" d="M360 179c-3-5-9-8-16-8l-176 0c-7 0-13 3-16 8-4 6-3 12 0 17l88 137c4 5 10 8 16 8 6 0 12-3 16-8l88-137c3-5 4-11 0-17z"/>
<glyph glyph-name="call" unicode="&#57347;" d="M155 155c24-24 48-42 72-53-4 8-6 18-6 27 0 16 6 31 17 43l26 25c6 7 16 11 25 11 10 0 20-4 26-11l50-49c7-8 11-18 10-29 0-10-6-20-14-26-70-52-149-31-224 44-75 75-96 154-44 224 6 8 16 14 26 14 11 1 21-3 29-10l49-50c7-6 11-16 11-25 0-10-4-20-11-26l-25-26c-19-19-47-22-70-11 11-24 29-48 53-72z m191-42c2 2 4 5 4 8 0 3-1 7-3 9l-50 49c-2 2-5 3-8 3-2 0-5-1-7-3l-26-25c-6-7-10-16-10-25 0-9 4-18 10-25l14-14c27-2 52 5 76 23z m-242 143c14-13 36-13 50 0l25 26c2 2 3 5 3 8 0 2-1 5-3 7l-49 50c-2 2-6 3-9 3-3 0-6-2-8-4-18-24-25-49-23-75z m140 47c-7 0-13 6-13 13 0 7 6 13 13 13 47 0 85-38 85-85 0-7-6-13-13-13-7 0-13 6-13 13 0 33-26 59-59 59z m0 60c-7 0-13 5-13 13 0 7 6 12 13 12 80 0 144-64 144-144 0-7-5-13-12-13-8 0-13 6-13 13 0 66-53 119-119 119z m0 60c-7 0-13 5-13 12 0 7 6 13 13 13 113 0 204-91 204-204 0-7-6-13-13-13-7 0-13 6-13 13 0 99-79 179-178 179z"/>
<glyph glyph-name="carat-down" unicode="&#57348;" d="M254 215l126 140c9 10 25 10 35 0 9-11 9-28 0-38l-144-160c-10-10-25-10-35 0l-144 160c-9 10-9 27 0 38 10 10 26 10 36 0z"/>
<glyph glyph-name="carat-left" unicode="&#57349;" d="M215 256l140-128c10-10 10-26 0-36-11-9-28-9-38 0l-160 146c-10 10-10 26 0 36l160 146c10 9 27 9 38 0 10-10 10-26 0-36z"/>
<glyph glyph-name="carat-right" unicode="&#57350;" d="M157 384c-10 10-10 26 0 36 11 9 28 9 38 0l160-146c10-10 10-26 0-36l-160-146c-10-9-27-9-38 0-10 10-10 26 0 36l140 128z"/>
<glyph glyph-name="carat-up" unicode="&#57351;" d="M254 297l-126-140c-10-10-26-10-36 0-9 11-9 28 0 38l144 160c10 10 25 10 35 0l144-160c9-10 9-27 0-38-10-10-26-10-35 0z"/>
<glyph glyph-name="caution" unicode="&#57352;" d="M256 147c-12 0-21 10-21 21 0 11 9 20 21 20 12 0 21-9 21-20 0-11-9-21-21-21z m0 186c12 0 22-10 22-22 0-1 0-1 0-1l-3-85c-1-10-9-18-19-18-10 0-19 8-19 18l-3 85c-1 12 9 22 21 23 0 0 1 0 1 0z m5 57c-5 3-11 2-14-3l-147-251c-1-2-1-4-1-5 0-6 5-11 10-11l294 0c2 0 3 1 5 2 5 2 7 9 4 14l-147 251c-1 1-2 3-4 3z m181-237c12-21 5-49-16-62-7-4-15-6-23-6l-294 0c-25 0-45 21-45 46 0 8 2 15 6 22l147 251c12 22 40 29 62 16 7-3 12-9 16-16z"/>
<glyph glyph-name="chat" unicode="&#57353;" d="M105 213c-28 50-27 112 4 161 32 51 90 80 150 73 60-6 111-47 132-103 2-7-1-14-8-17-7-2-14 1-16 8-17 48-60 81-110 87-51 5-100-19-127-61-27-43-27-98 0-141 2-3 3-8 1-12l-27-57 57 27c4 2 8 2 12-1 15-9 32-15 49-18 7-1 12-7 11-14-1-7-8-12-15-11-18 3-36 9-52 18l-84-39c-11-6-22 6-17 17z m67 113c-7 0-12 6-12 13 0 7 5 13 12 13l120 0c7 0 13-6 13-13 0-7-6-13-13-13z m0-71c-7 0-12 5-12 12 0 8 5 13 12 13l48 0c7 0 13-5 13-13 0-7-6-12-13-12z m229-119c0 3 1 7 3 10 19 22 24 52 12 78-12 26-38 43-66 43l0 0c-28 0-54-16-66-42-12-25-9-55 9-76 17-22 46-32 73-26 3 1 7 0 9-1l32-20z m-51 156c38 0 73-22 89-57 15-34 11-72-12-101l10-56c2-10-10-18-19-13l-52 32c-35-6-71 8-93 36-24 29-28 70-12 104 17 34 51 55 89 55l0 0z m26-60c7 0 12-5 12-12 0-7-5-13-12-13l-48 0c-7 0-13 6-13 13 0 7 6 12 13 12z m0-47c7 0 12-6 12-13 0-7-5-13-12-13l-48 0c-7 0-13 6-13 13 0 7 6 13 13 13z"/>
<glyph glyph-name="check" unicode="&#57354;" d="M401 376c11 11 28 11 39 0 11-10 11-27 0-38l-233-221c-12-11-31-10-41 2l-96 111c-9 11-8 28 4 37 12 9 29 8 39-3l76-89z"/>
<glyph glyph-name="close" unicode="&#57355;" d="M114 365c-10 9-10 24 0 33 9 10 24 10 33 0l109-108 109 108c9 10 24 10 33 0 10-9 10-24 0-33l-108-109 108-109c10-9 10-24 0-33-9-10-24-10-33 0l-109 108-109-108c-9-10-24-10-33 0-10 9-10 24 0 33l108 109z"/>
<glyph glyph-name="copy" unicode="&#57356;" d="M141 345c-10 0-18-8-18-17l0-218c0-10 8-18 18-18l156 0c9 0 17 8 17 18l0 218c0 9-8 17-17 17z m0 28l156 0c25 0 45-20 45-45l0-218c0-26-20-46-45-46l-156 0c-26 0-46 20-46 46l0 218c0 25 20 45 46 45z m223-236c1 3 1 7 1 11l0 184c0 35-29 64-64 64l-119 0c-4 0-8 0-11-1 5 30 31 53 63 53l119 0c35 0 64-29 64-64l0-184c0-32-23-58-53-63z"/>
<glyph glyph-name="delete" unicode="&#57357;" d="M334 397l100 0c8 0 14-6 14-14 0-8-6-15-14-15l-25 0-23-268c-1-20-18-36-39-36l-182 0c-21 0-38 16-39 36l-23 268-25 0c-8 0-14 7-14 15 0 8 6 14 14 14l100 0 0 11c0 22 18 40 40 40l76 0c22 0 40-18 40-40z m-29 0l0 11c0 6-5 11-11 11l-76 0c-6 0-11-5-11-11l0-11z m14-29l-187 0 22-265c1-6 5-10 11-10l182 0c6 0 10 4 11 10l22 265z m-87-201c0-8-6-14-14-14-8 0-14 6-14 14l0 127c0 8 6 14 14 14 8 0 14-6 14-14z m76 0c0-8-6-14-14-14-8 0-14 6-14 14l0 127c0 8 6 14 14 14 8 0 14-6 14-14z"/>
<glyph glyph-name="edit" unicode="&#57358;" d="M318 337l-22 21-166-166 30-13z m19-19l-158-158 13-30 166 166z m-222-149l-19-73 73 19-16 38z m15 23l-18 8c-5 2-11 1-15-3l229 230c14 13 32 21 51 21 19 0 37-7 50-21l0 0c14-13 21-31 21-50 0-19-8-38-21-51l-230-229c-2-2-4-3-6-4l-110-29c-10-2-19 7-17 17l29 110z m-35 3c1 1 1 2 2 2l0 0z m220 182l62-62 15 14-63 63z m34 33l62-61c6 7 10 17 10 28 0 12-5 23-13 31-8 8-19 13-31 13-11 0-21-4-28-11z"/>
<glyph glyph-name="email-send" unicode="&#57359;" d="M387 377l-105-79c-21-20-53-20-74-1l-105 80 0-170c0-6 5-10 11-10l87 0c7 0 12-5 12-12 0-6-5-11-12-11l-87 0c-19 0-34 15-34 33l0 175c0 19 15 34 34 34l262 0c19 0 34-15 34-34l0-131c0-7-5-12-12-12-6 0-11 5-11 12z m-19 16l-246 0 101-78c13-11 31-11 44 0z m-24-186c0-6-5-12-11-12l-66 0c-6 0-10-4-10-10l0-22c0-5 4-10 10-10l66 0c6 0 11-5 11-12l0-9 57 42-57 43z m-23 33c0 10 11 15 19 9l87-65c7-5 7-14 0-19l-87-66c-8-6-19 0-19 10l0 21-54 0c-19 0-34 15-34 33l0 22c0 19 15 34 34 34l54 0z"/>
<glyph glyph-name="favorite" unicode="&#57360;" d="M268 411c27 26 65 39 102 33 38-6 70-30 87-64 23-45 14-100-22-135l-164-172c-8-8-22-8-30 0l-164 171c-36 36-45 91-22 136 17 34 49 58 87 64 37 6 75-7 102-33l12-13z m-12-294l150 156c23 24 29 59 14 89-11 22-32 37-56 41-24 4-49-4-67-21l-26-27c-8-8-22-8-30 0l-26 27c-18 17-43 25-67 21-24-4-45-19-56-41-15-30-9-65 15-89z"/>
<glyph glyph-name="favorite-filled" unicode="&#57361;" d="M256 88l-164 171c-29 29-36 74-18 112 14 27 41 47 71 52 31 5 62-5 84-27l27-27 27 27c22 22 53 32 84 27 30-5 57-25 71-52 18-38 11-83-18-112z"/>
<glyph glyph-name="filter" unicode="&#57362;" d="M75 383l358 0c27 0 27-41 0-41l-358 0c-27 0-27 41 0 41z m42-107l271 0c27 0 27-40 0-40l-271 0c-27 0-27 40 0 40z m64-106l150 0c27 0 27-41 0-41l-150 0c-27 0-27 41 0 41z"/>
<glyph glyph-name="info" unicode="&#57363;" d="M271 191l12 0c8 0 15-7 15-15 0-9-7-16-15-16l-54 0c-8 0-15 7-15 16 0 8 7 15 15 15l12 0 0 77-12 0c-8 0-15 6-15 15 0 8 7 15 15 15l27 0c8 0 15-7 15-15z m-15-111c-97 0-176 79-176 176 0 97 79 176 176 176 97 0 176-79 176-176 0-97-79-176-176-176z m0 30c80 0 146 66 146 146 0 80-66 146-146 146-80 0-146-66-146-146 0-80 66-146 146-146z m0 255c8 0 15-7 15-15 0-9-7-15-15-15 5 0 8 3 8 8 0 5-3 9-8 9-5 0-8-4-8-9 0-5 3-8 8-8-8 0-15 6-15 15 0 8 7 15 15 15 0 0 0 0 0 0 12 0 22-10 22-22 0-12-10-22-22-22-12 0-22 10-22 22 0 12 10 22 22 22 0 0 0 0 0 0z"/>
<glyph glyph-name="location" unicode="&#57364;" d="M256 448c79 0 143-72 143-162 0-74-107-222-143-222-36 0-143 148-143 222 0 90 64 162 143 162z m2-353c1 0 1 0 1 0 0 0 0 0 0 0z m-1 3c4 3 9 8 15 14 13 13 28 31 41 51 34 47 55 93 55 124 0 72-50 130-112 130-62 0-112-58-112-130 0-31 21-77 54-124 14-20 29-38 42-51 6-6 11-11 15-14 0-1 1-1 1-1 0 0 1 0 1 1z m-1 162c24 0 42 18 42 43 0 24-18 43-42 43-24 0-42-19-42-43 0-25 18-43 42-43z m0-32c-41 0-74 33-74 75 0 41 33 74 74 74 41 0 73-33 73-74 0-42-32-75-73-75z"/>
<glyph glyph-name="minus" unicode="&#57365;" d="M406 277c12 0 21-9 21-21 0-12-9-21-21-21l-300 0c-12 0-21 9-21 21 0 12 9 21 21 21z"/>
<glyph glyph-name="more" unicode="&#57366;" d="M256 341c-24 0-43 19-43 43 0 24 19 43 43 43 24 0 43-19 43-43 0-24-19-43-43-43z m0-128c-24 0-43 19-43 43 0 24 19 43 43 43 24 0 43-19 43-43 0-24-19-43-43-43z m0-128c-24 0-43 19-43 43 0 24 19 43 43 43 24 0 43-19 43-43 0-24-19-43-43-43z"/>
<glyph glyph-name="plus" unicode="&#57367;" d="M277 235l0-129c0-12-9-21-21-21-12 0-21 9-21 21l0 129-129 0c-12 0-21 9-21 21 0 12 9 21 21 21l129 0 0 129c0 12 9 21 21 21 12 0 21-9 21-21l0-129 129 0c12 0 21-9 21-21 0-12-9-21-21-21z"/>
<glyph glyph-name="recent-arrow" unicode="&#57368;" d="M140 281l23 23c5 5 14 5 19 0 6-6 6-14 0-19l-47-47c-2-3-6-5-10-5-4 0-8 2-10 5l-47 47c-5 5-5 13 0 19 5 5 14 5 19 0l26-26c9 84 81 149 167 149 93 0 168-76 168-169 0-92-75-168-168-168-8 0-14 6-14 14 0 7 6 13 14 13 78 0 141 63 141 141 0 78-63 142-141 142-71 0-129-52-140-119z m211-21c8 0 14-6 14-13 0-8-6-14-14-14l-83 0c-8 0-14 6-14 14l0 107c0 7 6 13 14 13 7 0 13-6 13-13l0-94z"/>
<glyph glyph-name="refresh" unicode="&#57369;" d="M209 409c79 36 172 7 216-67 43-75 24-170-45-222-28-20-61-32-95-33-9 0-16 7-17 16 0 9 7 16 16 16 28 1 54 10 77 27 56 42 72 119 36 180-35 60-111 84-175 54-58-27-90-91-76-153l14 29c4 8 14 11 21 7 8-4 12-13 8-21l-31-64c-4-7-14-11-22-7l-63 31c-8 4-11 13-7 21 3 8 13 12 21 8l28-14c-18 78 21 159 94 192z"/>
<glyph glyph-name="search" unicode="&#57370;" d="M346 204l96-97c8-8 8-21 0-29-8-8-21-8-29 0l-94 94c-12-10-26-19-42-26-78-33-168 3-201 81-33 78 3 167 81 200 78 33 168-3 201-81 20-48 14-101-12-142z m-84-23c58 25 85 92 60 150-24 59-92 86-150 61-58-25-85-92-60-150 24-58 92-85 150-61z"/>
<glyph glyph-name="share-android" unicode="&#57371;" d="M181 212c-10-8-23-13-37-13-32 0-59 26-59 59 0 32 27 59 59 59 17 0 32-7 43-18l105 52c-2 6-3 11-3 17 0 32 27 59 59 59 33 0 59-27 59-59 0-33-26-59-59-59-15 0-29 6-39 15l-107-54c1-4 1-8 1-12 0-7-1-14-3-20l105-53c11 11 26 18 43 18 33 0 59-26 59-59 0-32-26-59-59-59-32 0-59 27-59 59 0 4 1 8 2 12z"/>
<glyph glyph-name="share-ios" unicode="&#57372;" d="M328 303c-10 0-17 7-17 16 0 10 7 17 17 17l35 0c19 0 35-16 35-37l0-177c0-20-16-37-35-37l-221 0c-19 0-35 17-35 37l0 177c0 21 16 37 35 37l36 0c9 0 16-7 16-17 0-9-7-16-16-16l-39 0 0-185 227 0 0 185z m-113 81c-7-7-17-7-23 0-6 6-6 18 0 24l49 56c3 3 7 5 11 5 2 0 3 0 4 0 3-1 6-2 8-5l49-56c6-7 6-17 0-24-6-7-17-7-23 0l-21 24 0-176c0-10-7-18-16-18-9 0-17 9-17 18l0 176z"/>
<glyph glyph-name="target" unicode="&#57373;" d="M388 243c-6-63-56-113-119-119l0-47c0-7-6-13-13-13-7 0-13 6-13 13l0 47c-63 6-113 56-119 119l-47 0c-7 0-13 6-13 13 0 7 6 13 13 13l47 0c6 63 56 113 119 119l0 47c0 7 6 13 13 13 7 0 13-6 13-13l0-47c63-6 113-56 119-119l47 0c7 0 13-6 13-13 0-7-6-13-13-13z m-132-35c-26 0-48 22-48 48 0 26 22 48 48 48 26 0 48-22 48-48 0-26-22-48-48-48z m0-58c58 0 106 48 106 106 0 58-48 106-106 106-58 0-106-48-106-106 0-58 48-106 106-106z"/>
<glyph glyph-name="transfer" unicode="&#57374;" d="M147 209c-22 15-36 40-36 68 0 45 36 81 81 81 45 0 81-36 81-81 0-28-14-53-36-68 16-5 31-14 44-25 6-6 7-16 1-22-6-7-15-7-22-2-19 17-43 26-68 26-51 0-95-38-101-89-1-8-9-14-18-13-8 1-14 9-13 17 6 51 41 92 87 108z m45 18c28 0 50 22 50 50 0 28-22 50-50 50-28 0-50-22-50-50 0-28 22-50 50-50z m109 103c-15 12-24 30-24 51 0 37 30 67 66 67 37 0 67-30 67-67 0-20-10-39-25-51 29-13 50-38 58-68 2-8-2-17-11-19-8-2-17 3-19 11-6 22-22 41-44 49-22 8-46 5-65-8-8-5-17-3-22 4-5 8-3 17 4 22 5 3 10 6 15 9z m42 16c20 0 36 16 36 35 0 20-16 36-36 36-19 0-35-16-35-36 0-19 16-35 35-35z m-38-268c-6-6-17-6-23 0-6 6-6 17 0 23l89 84-27 0c-8 0-16 7-16 16 0 9 8 17 16 17l66 0c9 0 16-8 16-17l0-65c0-9-7-16-16-16-9 0-17 7-17 16l0 26z"/>
<glyph glyph-name="bell" unicode="&#57375;" d="M250 412l0 23c0 7 6 13 13 13 7 0 13-6 13-13l0-23c67-7 119-64 119-132 0-48 5-82 12-104 2-7 4-12 7-15 0-2 1-2 0-2 10-8 5-24-8-24l-286 0c-11 0-17 13-10 22 1 3 5 10 9 23 7 24 11 57 11 100 0 68 53 125 120 132z m-32-315c-2 8 2 15 9 17 8 2 15-2 17-9 3-8 10-14 19-14 9 0 16 6 19 14 2 7 9 11 17 9 7-2 11-9 9-17-6-19-24-33-45-33-21 0-39 14-45 33z m163 71c-8 25-12 62-12 112 0 58-48 105-106 105-58 0-106-47-106-105 0-45-4-81-12-107-1-4-2-7-3-11l241 0c-1 2-1 4-2 6z"/>
<glyph glyph-name="building" unicode="&#57376;" d="M346 196c1-1 1-2 1-3 0-11-10-21-22-21-1 0-1 0-2 0-1 0-2 0-3 0-12 0-21 10-21 21 0 1 0 2 0 3 0 1 0 2 0 3 0 11 9 21 21 21 1 0 2 0 3 0 1 0 1 0 2 0 12 0 22-10 22-21 0-1 0-2-1-3z m0 72c1-1 1-2 1-3 0-11-10-21-22-21-1 0-1 0-2 0-1 0-2 0-3 0-12 0-21 10-21 21 0 1 0 2 0 3 0 1 0 2 0 3 0 11 9 21 21 21 1 0 2 0 3 0 1 0 1 0 2 0 12 0 22-10 22-21 0-1 0-2-1-3z m0 72c1-1 1-2 1-3 0-11-10-21-22-21-1 0-1 0-2 0-1 0-2 0-3 0-12 0-21 10-21 21 0 1 0 2 0 3 0 1 0 2 0 3 0 11 9 21 21 21 1 0 2 0 3 0 1 0 1 0 2 0 12 0 22-10 22-21 0-1 0-2-1-3z m-72-144c1-1 1-2 1-3 0-11-10-21-22-21-1 0-1 0-2 0-1 0-2 0-3 0-12 0-21 10-21 21 0 1 0 2 0 3 0 1 0 2 0 3 0 11 9 21 21 21 1 0 2 0 3 0 1 0 1 0 2 0 12 0 22-10 22-21 0-1 0-2-1-3z m0 72c1-1 1-2 1-3 0-11-10-21-22-21-1 0-1 0-2 0-1 0-2 0-3 0-12 0-21 10-21 21 0 1 0 2 0 3 0 1 0 2 0 3 0 11 9 21 21 21 1 0 2 0 3 0 1 0 1 0 2 0 12 0 22-10 22-21 0-1 0-2-1-3z m0 72c1-1 1-2 1-3 0-11-10-21-22-21-1 0-1 0-2 0-1 0-2 0-3 0-12 0-21 10-21 21 0 1 0 2 0 3 0 1 0 2 0 3 0 11 9 21 21 21 1 0 2 0 3 0 1 0 1 0 2 0 12 0 22-10 22-21 0-1 0-2-1-3z m-72-144c1-1 1-2 1-3 0-11-10-21-22-21-1 0-1 0-2 0-1 0-2 0-3 0-12 0-21 10-21 21 0 1 0 2 0 3 0 1 0 2 0 3 0 11 9 21 21 21 1 0 2 0 3 0 1 0 1 0 2 0 12 0 22-10 22-21 0-1 0-2-1-3z m0 72c1-1 1-2 1-3 0-11-10-21-22-21-1 0-1 0-2 0-1 0-2 0-3 0-12 0-21 10-21 21 0 1 0 2 0 3 0 1 0 2 0 3 0 11 9 21 21 21 1 0 2 0 3 0 1 0 1 0 2 0 12 0 22-10 22-21 0-1 0-2-1-3z m0 72c1-1 1-2 1-3 0-11-10-21-22-21-1 0-1 0-2 0-1 0-2 0-3 0-12 0-21 10-21 21 0 1 0 2 0 3 0 1 0 2 0 3 0 11 9 21 21 21 1 0 2 0 3 0 1 0 1 0 2 0 12 0 22-10 22-21 0-1 0-2-1-3z m193 48c0 0 0 0 0 0 0 0 0 0 0-1 0 0 0 0 0 0l0-310c0-7-6-13-12-13-7 0-12 6-12 13l0 299-240 0 0-299c0-7-6-13-12-13-7 0-12 6-12 13l0 310c0 0 0 0 0 0 0 1 0 1 0 1 0 0 0 0 0 0 0 3 0 5 1 7l24 46c2 4 7 7 12 7l213 0c6 0 10-3 12-7l24-46c1-2 2-4 2-7z m-46 34l-197 0-10-20 217 0z m-50-310l0-35c0-7-6-13-13-13l-70 0c-7 0-13 6-13 13l0 35c0 27 21 48 48 48 26 0 48-21 48-48z m-27 0c0 12-9 22-21 22-12 0-22-10-22-22l0-22 43 0z"/>
<glyph glyph-name="calendar" unicode="&#57377;" d="M352 389l0-20c0-9-7-16-16-16-9 0-16 7-16 16l0 20-117 0 0-20c0-9-7-16-16-16-9 0-16 7-16 16l0 20-38 0c-9 0-16-7-16-16l0-48 288 0 0 48c0 9-7 16-16 16z m0 32l37 0c27 0 48-21 48-48l0-248c0-26-21-48-48-48l-256 0c-26 0-48 22-48 48l0 248c0 27 22 48 48 48l38 0 0 32c0 9 7 16 16 16 9 0 16-7 16-16l0-32 117 0 0 32c0 9 7 16 16 16 9 0 16-7 16-16z m-235-128l0-168c0-9 7-16 16-16l256 0c9 0 16 7 16 16l0 168z"/>
<glyph glyph-name="calendar-multi" unicode="&#57378;" d="M119 295l-7 0c-6 0-11-5-11-12l0-35 18 0 0-24-18 0 0-124c0-7 5-12 11-12l181 0c6 0 11 5 11 12l0 5 23 0 0-5c0-20-15-36-34-36l-181 0c-19 0-34 16-34 36l0 183c0 20 15 36 34 36l7 0z m245 88l0-16c0-7-6-13-13-13-8 0-14 6-14 13l0 16-96 0 0-16c0-7-6-13-14-13-7 0-13 6-13 13l0 16-31 0c-7 0-13-6-13-13l0-39 238 0 0 39c0 7-6 13-13 13z m0 26l31 0c21 0 39-17 39-39l0-201c0-22-18-39-39-39l-212 0c-22 0-39 17-39 39l0 201c0 22 17 39 39 39l31 0 0 26c0 7 6 13 13 13 8 0 14-6 14-13l0-26 96 0 0 26c0 7 6 13 14 13 7 0 13-6 13-13z m-194-104l0-136c0-7 6-13 13-13l212 0c7 0 13 6 13 13l0 136z"/>
<glyph glyph-name="camera" unicode="&#57379;" d="M135 366l0 11c0 7 6 13 14 13 7 0 13-6 13-13l0-11 38 0 14 27c6 13 19 21 33 21l89 0c15 0 28-8 34-21l13-27 28 0c20 0 37-16 37-37l0-190c0-21-17-38-37-38l-310 0c-20 0-37 17-37 38l0 190c0 21 17 37 37 37z m157-217c-54 0-97 43-97 97 0 53 43 96 97 96 53 0 96-43 96-96 0-54-43-97-96-97z m0 27c38 0 70 31 70 70 0 38-32 69-70 69-39 0-70-31-70-69 0-39 31-70 70-70z m71 171l-17 34c-2 4-6 6-10 6l-89 0c-4 0-8-2-9-6l-18-34c-2-5-6-8-12-8l-107 0c-5 0-10-4-10-10l0-190c0-6 5-11 10-11l310 0c5 0 10 5 10 11l0 190c0 6-5 10-10 10l-36 0c-5 0-10 3-12 8z m-213-48c0-11-8-19-19-19-11 0-19 8-19 19 0 11 8 20 19 20 11 0 19-9 19-20z"/>
<glyph glyph-name="checklist" unicode="&#57380;" d="M101 421c-5 0-10-5-10-10l0-310c0-5 5-10 10-10l310 0c5 0 10 5 10 10l0 310c0 5-5 10-10 10z m0 27l310 0c20 0 37-17 37-37l0-310c0-20-17-37-37-37l-310 0c-20 0-37 17-37 37l0 310c0 20 17 37 37 37z m144-65c5 6 13 7 19 3 6-5 7-13 3-19l-72-95c-5-7-14-8-20-2l-48 48c-5 5-5 14 0 19 6 5 14 5 20 0l36-37z m47-81c-8 0-14 6-14 14 0 7 6 13 14 13l71 0c8 0 14-6 14-13 0-8-6-14-14-14z m-47-62c5 6 13 7 19 3 6-4 7-13 3-19l-72-95c-5-7-14-7-20-2l-48 48c-5 5-5 14 0 19 6 5 14 5 20 0l36-36z m47-81c-8 0-14 6-14 14 0 7 6 13 14 13l71 0c8 0 14-6 14-13 0-8-6-14-14-14z"/>
<glyph glyph-name="cog" unicode="&#57381;" d="M208 415c-5 6-13 7-20 5-7-3-11-10-11-17l1-23c1-12-4-25-13-34-8-8-21-13-33-13l-23 2c-7 0-14-4-17-11-2-7-1-15 5-20l16-15c10-8 15-21 15-33 0-13-5-25-15-33l-16-15c-6-5-8-13-5-20 3-7 10-11 18-11l22 1c12 1 25-4 34-13 8-9 13-21 13-33l-2-23c0-7 4-14 11-17 7-3 15-1 20 5l15 16c8 10 20 15 33 15 13 0 25-5 33-15l15-16c5-6 13-7 20-5 7 3 11 10 11 17l-2 23c0 12 5 24 13 33 9 9 22 14 34 13l23-1c7 0 14 4 17 11 3 7 1 15-5 20l-16 15c-10 8-15 20-15 33 0 13 5 25 15 33l16 15c6 5 8 13 5 20-3 7-10 11-17 11l-23-1c-12-1-25 4-33 13-9 8-14 21-13 33l1 23c0 7-4 14-11 17-7 3-15 1-20-5l-15-16c-8-10-20-15-33-15-13 0-25 5-33 15z m35 2c3-4 8-6 13-6 5 0 10 2 13 6l15 16c13 14 33 19 50 12 18-8 29-25 28-44l-1-22c-1-5 1-10 5-13 3-4 8-6 13-6l22 2c19 1 36-10 44-28 7-17 2-37-12-50l-16-15c-4-3-6-8-6-13 0-5 2-10 6-13l16-15c14-13 19-33 12-50-8-18-25-29-44-28l-22 1c-5 1-10-1-13-5-4-3-6-8-6-13l2-22c0-19-11-36-28-44-17-7-37-2-50 12l-15 16c-3 4-8 6-13 6-5 0-10-2-13-6l-15-16c-13-14-33-19-50-12-17 8-28 25-28 44l2 22c0 5-2 10-6 13-3 4-8 6-13 5l-22-1c-19-1-36 10-44 28-7 17-2 37 12 50l16 15c4 3 6 8 6 13 0 5-2 10-6 13l-16 15c-14 13-19 33-12 50 8 17 25 28 44 28l22-2c5 0 10 2 13 6 4 3 6 8 6 13l-2 22c0 19 11 36 28 44 17 7 37 2 50-12z m13-246c-47 0-85 38-85 85 0 47 38 85 85 85 47 0 85-38 85-85 0-47-38-85-85-85z m0 27c32 0 58 26 58 58 0 32-26 58-58 58-32 0-58-26-58-58 0-32 26-58 58-58z"/>
<glyph glyph-name="eye" unicode="&#57382;" d="M438 283c13-15 13-37 0-52-51-55-120-93-182-92-62-1-131 37-182 92-13 15-13 37 0 52 51 55 120 93 182 92 62 1 131-37 182-92z m-182 66l0 0c-53 1-116-34-162-83-4-5-4-13 0-17 46-50 108-85 162-84 54-1 116 34 162 84 4 4 4 12 0 17-46 49-109 84-162 83z m46-92c0 12-5 24-13 32-9 8-21 13-33 13-25 0-46-20-46-45 0-25 21-45 46-45 25 0 46 20 46 45z m-46-72c-40 0-73 33-73 72 0 40 33 72 73 72 19 0 38-8 52-21 13-14 21-32 21-51 0-40-33-72-73-72z"/>
<glyph glyph-name="eye-filled" unicode="&#57383;" d="M439 281c-42 46-113 95-183 94-70 1-141-48-183-94-12-14-12-34 0-48 42-46 111-94 180-94l5 0c70 0 139 48 181 94 12 14 12 34 0 48z m-257-24c0 41 33 74 74 74 41 0 74-33 74-74 0-41-33-74-74-74-41 0-74 33-74 74z m74-32c18 0 32 14 32 32 0 18-14 32-32 32-18 0-32-14-32-32 0-18 14-32 32-32z"/>
<glyph glyph-name="flame" unicode="&#57384;" d="M329 220c-1 7 5 12 11 12 7 1 13-5 13-11 1-45-33-83-78-85-7 0-13 5-13 12 0 6 5 12 12 12 31 2 56 28 55 60z m-109 198c-5 5-6 14-3 20 4 7 11 11 19 10 94-12 183-116 183-216 0-95-60-168-156-168-82 0-156 60-156 132-1 57 34 108 86 128 6 3 13 2 18-2 5-4 8-10 7-17-3-21 6-43 22-57 0 0 0 0 0 0 42 38 49 93-20 170z m-89-222c0-57 62-108 132-108 82 0 132 61 132 144 0 82-70 169-146 189 66-81 56-147 8-191-9-8-23-9-32-1-21 18-32 43-32 69-38-18-63-58-62-102z"/>
<glyph glyph-name="gift-box" unicode="&#57385;" d="M276 279l0 39-42 0 0-39z m22 0l105 0 0 30c0 5-4 9-9 9l-96 0z m-22-170l0 146-42 0 0-146z m22 0l74 0c5 0 10 4 10 9l0 137-84 0z m-86 170l0 39-94 0c-5 0-9-4-9-9l0-30z m0-170l0 146-82 0 0-137c0-5 5-9 10-9z m194 146l0-137c0-18-15-33-34-33l-232 0c-19 0-34 15-34 33l0 137c-11 0-21 10-21 22l0 32c0 18 15 33 33 33l276 0c18 0 33-15 33-33l0-32c0-12-10-22-21-22z m-151 75c0 52 52 97 107 97 6 0 12-6 12-12 0-52-52-97-107-97-7 0-12 5-12 12z m25 13c33 6 61 30 68 59-32-6-61-30-68-59z m-35-25c-55 0-107 45-107 97 0 6 6 12 12 12 55 0 107-45 107-97 0-7-5-12-12-12z m-81 84c7-29 36-53 68-59-7 29-36 53-68 59z"/>
<glyph glyph-name="home" unicode="&#57386;" d="M331 96l50 0 0 201-116 116c-3 2-6 3-9 3-3 0-6-1-9-3l-116-116 0-201 50 0 0 67c0 40 34 72 75 72 41 0 75-32 75-72z m-33 0l0 67c0 22-19 40-42 40-23 0-42-18-42-40l0-67z m-195 219c1 0 1 0 1 0l121 120c8 8 19 13 31 13 12 0 23-5 31-13l121-120c0 0 0 0 0 0l57-56c6-6 6-16 0-22-7-7-17-7-23 0l-29 28 0-185c0-9-7-16-16-16l-282 0c-9 0-16 7-16 16l0 186-29-29c-6-7-16-7-23 0-6 6-6 16 0 22z"/>
<glyph glyph-name="id-face" unicode="&#57387;" d="M176 167c-6 5-6 13-1 19 5 5 13 6 19 1 35-33 89-33 124 0 6 5 14 4 19-1 5-6 5-14-1-19-45-42-115-42-160 0z m-17 172c0 8 6 14 14 14 7 0 13-6 13-14l0-35c0-8-6-14-13-14-8 0-14 6-14 14z m167 0c0 8 6 14 13 14 8 0 14-6 14-14l0-35c0-8-6-14-14-14-7 0-13 6-13 14z m-83 0c0 8 6 14 13 14 7 0 13-6 13-14l0-83c0-21-16-37-37-37l-12 0c-7 0-13 6-13 13 0 8 6 14 13 14l12 0c6 0 11 4 11 10z m178-190c0 7 6 13 14 13 7 0 13-6 13-13l0-48c0-20-17-37-37-37l-48 0c-7 0-13 6-13 13 0 8 6 14 13 14l48 0c5 0 10 5 10 10z m-58 272c-7 0-13 6-13 14 0 7 6 13 13 13l48 0c20 0 37-17 37-37l0-48c0-7-6-13-13-13-8 0-14 6-14 13l0 48c0 5-5 10-10 10z m-272-58c0-7-6-13-14-13-7 0-13 6-13 13l0 48c0 20 17 37 37 37l48 0c7 0 13-6 13-13 0-8-6-14-13-14l-48 0c-5 0-10-5-10-10z m58-272c7 0 13-6 13-14 0-7-6-13-13-13l-48 0c-20 0-37 17-37 37l0 48c0 7 6 13 13 13 8 0 14-6 14-13l0-48c0-5 5-10 10-10z"/>
<glyph glyph-name="id-touch" unicode="&#57388;" d="M377 388c-3 4-7 6-12 5-4 0-8-3-10-8-2-4-1-9 2-12 17-22 27-50 26-78l0-78c0-70-57-127-127-127-7 0-13-6-13-13 0-7 6-13 13-13 84 0 153 69 153 153l0 78c0 34-11 67-32 93z m-248-171l0 31c0 7-6 13-13 13-7 0-13-6-13-13l0-31c0-62 37-117 93-141 7-3 14 0 17 7 3 6 0 14-7 17-47 19-78 66-77 117z m-13 73c7 0 12 5 13 12 2 44 27 84 66 105 39 21 86 20 125-2 4-2 9-2 13 0 4 2 6 7 6 11 0 5-2 9-6 11-46 27-103 28-150 3-47-26-77-73-80-127 0-3 1-6 3-9 3-2 6-4 9-4z m246 5c0 34-16 66-44 86-27 20-63 26-95 15-5-1-8-5-9-10-1-4 0-9 4-12 3-3 8-4 13-2 24 8 51 3 72-12 21-15 34-39 34-65l0-78c0-7 5-13 12-13 7 0 13 6 13 13z m-167 72c-3 2-6 3-9 3-4 0-7-2-9-4-18-20-27-45-27-71l0-78c0-44 27-84 68-99 41-16 88-5 117 28 4 4 5 9 3 13-1 5-5 8-9 9-5 1-10-1-13-5-22-25-58-33-89-21-31 12-52 42-52 75l0 78c0 20 8 39 21 54 5 5 4 13-1 18z m27-150c0 7-6 13-13 13-7 0-13-6-13-13 0-33 27-59 60-59 33 0 60 26 60 59l0 78c0 33-27 59-60 59-33 0-60-26-60-59l0-23c0-7 6-13 13-13 7 0 13 6 13 13l0 23c0 19 15 34 34 34 19 0 34-15 34-34l0-78c0-19-15-34-34-34-19 0-34 15-34 34z m47 8l0 47c0 7-6 12-13 12-7 0-13-5-13-12l0-47c0-7 6-13 13-13 7 0 13 6 13 13z"/>
<glyph glyph-name="location-user" unicode="&#57389;" d="M228 347c-16 9-27 27-27 46 0 31 25 55 55 55 30 0 55-24 55-55 0-19-11-37-27-46 26-11 44-37 44-67l0-36c0-7-5-13-12-13l-13 0-10-84c-1-7-7-11-13-11l-48 0c-6 0-12 4-13 11l-10 84-13 0c-7 0-12 6-12 13l0 36c0 30 18 56 44 67z m131-132c-7 3-10 10-8 17 3 6 10 10 17 7 49-17 80-45 80-79 0-56-87-96-192-96-105 0-192 40-192 96 0 34 31 62 80 79 7 3 14-1 16-8 3-6-1-13-8-16-40-14-63-35-63-55 0-36 74-71 167-71 93 0 167 35 167 71 0 20-23 41-64 55z m-103 149c16 0 29 13 29 29 0 16-13 30-29 30-16 0-29-14-29-30 0-16 13-29 29-29z m47-84c0 26-21 47-47 47-26 0-47-21-47-47l0-23 11 0c7 0 12-5 13-11l10-85 26 0 10 85c1 6 6 11 13 11l11 0z"/>
<glyph glyph-name="lock" unicode="&#57390;" d="M159 309l0 46c0 54 44 97 97 97 53 0 97-43 97-97l0-46 10 0c21 0 37-16 37-37l0-166c0-21-16-38-37-38l-214 0c-21 0-37 17-37 38l0 166c0 21 16 37 37 37z m27 0l140 0 0 46c0 39-31 70-70 70-39 0-70-31-70-70z m-37-27c-6 0-10-4-10-10l0-166c0-6 4-11 10-11l214 0c6 0 10 5 10 11l0 166c0 6-4 10-10 10z m93-69c0 7 7 13 14 13 7 0 13-6 13-13l0-48c0-7-6-13-13-13-7 0-14 6-14 13z"/>
<glyph glyph-name="map" unicode="&#57391;" d="M316 138c-2 0-3 0-4-1l-102-40c-9-4-19-4-27 0l-96 38c-14 6-23 19-23 34l0 229c0 8 4 16 11 21 7 4 15 5 23 2l94-38c1 0 3 0 4 0 0 0 0 0 0 0 0 0 0 0 0 0 2 0 3 0 4 0l102 41c9 4 19 4 27 0l96-38c14-6 23-19 23-34l0-229c0-8-4-16-11-21-7-4-15-5-23-2l-94 37c-1 1-3 1-4 1 0 0 0 0 0 0 0 0 0 0 0 0z m-13 23l0 236-93-37c0 0-1-1-1-1l0-235 93 37c0 0 1 0 1 0z m25 0c1 0 1 0 1 0l94-37 0 228c0 4-3 8-8 10l-87 35z m-144-37l0 235c-1 0-1 1-1 1l-94 37 0-228c0-5 3-9 8-10z"/>
<glyph glyph-name="money" unicode="&#57392;" d="M220 371c42 26 59 35 83 44 34 11 66 13 99 3l2-1c6-2 10-6 11-11l54-201c1-3 1-6 0-8-2-9-9-14-17-11l-8 2c-26 8-51 6-78-3-20-7-35-16-74-40-48-30-69-40-96-48-29-7-57-7-86 1l-2 1c-6 2-10 6-11 12l-54 201c-1 2-1 5 0 8 2 8 9 13 17 11l8-3c26-7 51-6 78 3 20 7 35 16 74 40z m90 23c-22-7-39-16-79-42-40-25-56-34-78-42-30-10-58-12-87-4l50-187c25-7 49-8 74-1 26 7 45 17 91 46 40 25 56 34 78 42 30 10 58 12 87 4l-50 187c-29 9-57 8-86-3z m-78-71l1 1c45 30 66 39 96 40 7 1 13-4 15-11 2-8 12-16 26-20 5-2 9-6 11-11l13-50c1-3 1-6 0-9-2-8-11-13-19-10-2 0-3 0-3 0 0 0-1-2 0-4 0-2 0-3 0-4 1-8-6-16-14-16-23-1-40-8-82-36l-1-1 0 0c-34-23-50-31-71-37-8-2-17-3-25-4-7 0-14 5-15 12-3 8-13 16-26 20-6 1-10 6-11 11l-14 50c0 3 0 5 1 8 2 8 10 13 18 11 2-1 4-1 4-1 0 1 0 3 0 5-1 1-1 2-1 4 0 8 6 15 15 16 23 0 39 8 81 36z m-96-82l10-38c18-6 31-17 36-30 6 1 11 1 17 3 18 5 32 12 64 34l1 0 0 1c43 28 62 37 86 39 0 7 2 14 7 19 4 4 9 6 14 6l-10 38c-17 6-30 16-36 30-22-2-41-11-80-37l-1-1-1 0c-42-29-61-38-86-40 0-7-2-13-6-18-4-4-9-6-15-6z m102 57c10 7 23 9 33 5 11-4 19-13 22-25 5-22-5-48-24-60-3-3-8-5-12-6-7-2-14-2-21 1-10 4-18 13-21 25-6 21 4 47 23 60z m6-65c2-1 5-1 7 0 3 0 5 1 7 2 11 8 18 25 14 37-1 6-4 9-8 11-4 1-9 1-14-3-12-8-18-24-15-37 2-5 5-9 9-10z"/>
<glyph glyph-name="news" unicode="&#57393;" d="M100 403c-7 0-12-6-12-12l0-272c0-7 5-12 12-12l312 0c7 0 12 5 12 12l0 272c0 6-5 12-12 12z m0 24l312 0c20 0 36-16 36-36l0-272c0-20-16-36-36-36l-312 0c-20 0-36 16-36 36l0 272c0 20 16 36 36 36z m180-211c-7 0-12 5-12 12 0 6 5 12 12 12l96 0c7 0 12-6 12-12 0-7-5-12-12-12z m0-44c-7 0-12 5-12 12 0 6 5 12 12 12l96 0c7 0 12-6 12-12 0-7-5-12-12-12z m0-44c-7 0-12 5-12 12 0 6 5 12 12 12l60 0c7 0 12-6 12-12 0-7-5-12-12-12z m-156 88c-7 0-12 5-12 12 0 6 5 12 12 12l96 0c7 0 12-6 12-12 0-7-5-12-12-12z m0 48c-7 0-12 5-12 12 0 6 5 12 12 12l268 0c7 0 12-6 12-12 0-7-5-12-12-12z m0-92c-7 0-12 5-12 12 0 6 5 12 12 12l96 0c7 0 12-6 12-12 0-7-5-12-12-12z m0-44c-7 0-12 5-12 12 0 6 5 12 12 12l60 0c7 0 12-6 12-12 0-7-5-12-12-12z m4 250l256 0c9 0 16-7 16-16l0-40c0-9-7-16-16-16l-256 0c-9 0-16 7-16 16l0 40c0 9 7 16 16 16z"/>
<glyph glyph-name="paper-airplane" unicode="&#57394;" d="M247 226l83-95c3-4 10-6 16-5 7 2 11 5 12 10l65 252c0 2 0 4-1 5z m138 167l-289-132c-6-3-8-8-6-12 1-5 7-9 15-9l120 0z m-104-244l-21-41c-1-1-2-2-3-3-11-11-27-13-40-3-11 8-17 23-17 39l0 2 13 72-108 0c-18 0-34 10-39 26-6 16 2 34 19 43l302 137c13 8 30 7 43 0 13-8 21-23 17-39l-65-252c-3-14-15-25-31-28-15-4-31 1-40 13z m-18 20l-27 31-11-60c0-8 3-15 7-18 3-1 4-2 7 0l24 47c0 0 0 0 0 0z"/>
<glyph glyph-name="receipt" unicode="&#57395;" d="M132 68c-9-9-25-2-25 11l0 330c0 22 17 39 38 39l233 0c21 0 38-17 38-39l0-330c0-13-16-20-25-11l-36 37-36-37c-6-5-16-5-22 0l-36 37-36-37c-5-5-15-5-21 0l-36 37z m254 341c0 5-4 9-8 9l-233 0c-5 0-9-4-9-9l0-294 22 22c5 6 15 6 21 0l36-37 36 37c6 6 15 6 21 0l36-37 36 37c6 6 15 6 21 0l21-22z m-209-75c-8 0-14 7-14 15 0 8 6 15 14 15l89 0c8 0 15-7 15-15 0-8-7-15-15-15z m0-74c-8 0-14 6-14 15 0 8 6 15 14 15l89 0c8 0 15-7 15-15 0-9-7-15-15-15z m0-75c-8 0-14 7-14 15 0 8 6 15 14 15l89 0c8 0 15-7 15-15 0-8-7-15-15-15z m170 186c11 0 21-9 21-21 0-11-10-21-21-21-12 0-21 10-21 21 0 12 9 21 21 21 0 0 0 0 0 0z m0-74c11 0 21-10 21-21 0-12-10-21-21-21-12 0-21 9-21 21 0 11 9 21 21 21 0 0 0 0 0 0z m0-75c11 0 21-9 21-21 0-12-10-21-21-21-12 0-21 9-21 21 0 12 9 21 21 21 0 0 0 0 0 0z"/>
<glyph glyph-name="sale" unicode="&#57396;" d="M256 338c3-3 5-6 5-11l-1-4c11-3 21-9 27-18 5-6 4-14-2-19-6-4-15-3-19 3-4 6-11 9-19 9-11 0-19-6-19-12 0-5 8-11 19-11 25 0 46-16 46-38 0-18-14-32-33-36l1-6c0-8-6-14-14-14-7 0-13 6-13 14l-1 6c-10 3-19 9-26 18-5 5-3 14 2 18 6 5 15 4 19-2 5-6 11-9 19-9 11 0 19 6 19 11 0 6-8 11-19 11-25 0-46 17-46 38 0 18 14 32 32 37l1 4c0 5 1 8 4 11l-131 0c-5 0-10-5-10-11l0-131c0-5 5-10 10-10l84 0c7 0 13-6 13-13 0-8-6-14-13-14l-84 0c-20 0-37 17-37 37l0 131c0 21 17 38 37 38l22 0 0 7c0 20 17 37 38 37 5 0 10-1 15-3 6 11 18 19 32 19 5 0 9-1 13-2 5 14 19 25 35 25 16 0 30-11 35-25 4 1 8 2 13 2 20 0 37-17 37-37l0-23 58 0c20 0 37-17 37-38l0-138c0-8-6-14-13-14-8 0-14 6-14 14l0 138c0 6-5 11-10 11z m16 50l0 23c0 5-4 10-10 10-6 0-10-5-10-10l0-46 20 0z m48-23l0 23c0 5-5 10-10 10-6 0-11-5-11-10l0-23z m-95 23c0 5-5 10-11 10-5 0-10-5-10-10l0-23 21 0z m-48-23l0 7c0 5-5 10-10 10-6 0-11-5-11-10l0-7z m-23-237c-4 7-3 15 3 19 6 5 15 3 19-3l14-19c1-2 2-5 2-8l0-40c0-7-6-13-13-13-8 0-14 6-14 13l0 36z m181-51c0-7-6-13-14-13-7 0-13 6-13 13l0 16c0 14 6 28 17 36l35 29c5 3 7 9 7 15l0 72c0 5-4 9-9 9-4 0-6-1-8-5-2-2-2-4-3-6l-4-33c-2-14-10-26-22-33l-25-15c-5-3-9-9-9-16l0-21c0-7-6-13-13-13-8 0-14 6-14 13l0 21c0 16 9 31 22 40l25 14c5 3 8 8 9 14l5 34c0 1 0 2 1 5 1 3 3 7 5 10 6 11 17 18 31 18 20 0 36-16 36-36l0-72c0-14-6-28-17-36l-35-29c-5-3-7-9-7-15z"/>
<glyph glyph-name="seat" unicode="&#57397;" d="M378 283l12-67c15 3 31-2 43-14 20-20 20-52 0-72-48-44-112-68-177-66-65-2-129 22-177 67-13 12-18 31-13 49 4 17 18 31 36 35 6 2 13 2 20 1l12 67c-5 3-10 7-15 12-9 11-14 25-12 40l9 69c3 25 24 44 50 44l180 0c26 0 47-19 50-44l9-69c2-15-3-29-12-40-5-5-10-9-15-12z m-32-5l-180 0-14-77c28-24 66-37 105-36 38-1 75 12 103 36z m9 32c5 0 10 2 14 6 3 4 5 10 4 15l-8 69c-2 9-9 16-19 16l-180 0c-9 0-17-7-18-16l-9-69c-1-5 1-11 4-15 4-4 9-6 14-6z m-99-214l1 0c57-1 112 19 154 57 7 8 7 19-1 26-7 8-18 8-26 0-36-31-82-48-127-46-47-2-93 15-129 46-5 5-12 7-18 5-7-2-11-6-13-13-2-6 0-13 4-17 42-39 97-59 155-58z"/>
<glyph glyph-name="shield-check" unicode="&#57398;" d="M110 418c46 20 96 30 146 30 50 0 100-10 146-30 14-6 22-19 22-34l0-121c0-83-52-159-130-189l-16-6c-14-5-30-5-44 0l-17 6c-78 30-129 106-129 189l0 121c0 15 8 28 22 34z m5-34l0-121c0-72 44-137 112-163l17-7c8-3 16-3 24 0l17 7c67 26 112 91 112 163l0 121c0 4-2 8-6 9-42 19-88 28-135 28-47 0-93-9-135-28-4-1-6-5-6-9z m199-65c5 4 14 4 20 0 5-6 5-14 0-19l-97-85c-6-6-15-5-20 1l-40 42c-5 6-4 14 2 19 6 4 15 3 20-2l29-32z"/>
<glyph glyph-name="ticket" unicode="&#57399;" d="M356 156c-13-12-13-32 0-44 6-6 6-16 0-23l-26-25c-10-11-28-11-39 0l-227 227c-11 11-11 29 0 39l25 26c7 6 17 6 23 0 12-13 32-13 44 0 13 12 13 32 0 44-6 6-6 16 0 23l26 25c10 11 28 11 39 0l227-227c11-11 11-29 0-39l-25-26c-7-6-17-6-23 0-12 13-32 13-44 0z m-196 77l138-138c7-7 18-7 25 0l5 5 1 3c-15 23-11 53 8 72 19 19 49 23 72 8l3 1 5 5c7 7 7 18 0 25l-138 137-4 0-115-114z m63 48c6 6 16 6 22 0l52-51c5-6 5-16 0-22-6-6-16-6-22 0l-52 52c-6 6-6 15 0 21z m30 30c6 6 15 6 21 0l73-73c6-6 6-15 0-21-6-6-16-6-22 0l-72 72c-6 6-6 16 0 22z m-43 102c-5 5-13 5-18 0l-3-3c14-25 11-57-10-77-20-21-52-24-77-10l-3-3c-5-5-5-13 0-18l44-45 112 112z"/>
<glyph glyph-name="ticket-in-hand" unicode="&#57400;" d="M215 311l0 112c0 14 11 25 24 25l36 0c7 0 13-6 13-13 0-19 15-34 34-34 18 0 33 15 33 34 0 7 6 13 13 13l36 0c13 0 24-11 24-25l0-317c0-13-11-24-24-24l-36 0c-7 0-13 6-13 13 0 19-15 33-33 33-19 0-34-14-34-33 0-7-6-13-13-13l-36 0c-11 0-20 7-23 17l9 3c7 3 14 7 20 11 3-3 7-5 11-5l7 0c6 27 30 47 59 47 28 0 52-20 58-47l7 0c8 0 15 7 15 15l0 192-161 0 0-61c-5-1-11-4-16-8l-10-7 0 42-51-22c-14-6-25-17-31-31l-20-44c-3-8-4-16-4-24l0-82c0-8-7-14-14-14-8 0-14 6-14 14l0 82c0 12 2 24 7 34l19 45c9 20 25 37 46 46l58 25c1 0 3 0 4 1z m6-116c-6-4-15-3-20 3-4 6-3 15 3 20l27 20c9 6 20 9 31 7 10-2 20-8 26-17 8-13 8-30 0-43l-27-40c-10-15-24-26-40-33l-40-16c-7-3-15 1-18 8-3 7 1 15 8 18l40 16c11 4 20 12 27 22l27 40c2 4 2 9 0 13-2 3-5 4-8 5-3 1-7 0-9-2z m83 95c0 7 6 13 12 13 7 0 13-6 13-13l0-72c0-7-6-12-13-12-6 0-12 5-12 12z m41 0c0 7 6 13 12 13 7 0 13-6 13-13l0-101c0-7-6-12-13-12-6 0-12 5-12 12z m57 116c0 9-7 15-15 15l-7 0c-6-26-30-46-58-46-29 0-53 20-59 46l-7 0c-8 0-15-6-15-15l0-64 161 0z"/>
<glyph glyph-name="user" unicode="&#57401;" d="M319 210c56-19 102-63 123-121 3-10-2-21-11-24-10-3-21 2-24 11-23 64-83 107-151 107-68 0-128-43-151-107-3-9-14-14-24-11-9 3-14 14-11 24 21 58 67 102 123 121-39 22-65 63-65 110 0 71 58 128 128 128 71 0 128-57 128-128 0-47-26-88-65-110z m-63 20c50 0 91 40 91 90 0 50-41 91-91 91-50 0-91-41-91-91 0-50 41-90 91-90z"/>
<glyph glyph-name="state-fail" unicode="&#57402;" d="M234 256l-60 59c-6 7-6 16 0 23 7 6 16 6 23 0l59-60 59 60c7 6 16 6 23 0 6-7 6-16 0-23l-60-59 60-59c6-7 6-16 0-23-7-6-16-6-23 0l-59 60-59-60c-7-6-16-6-23 0-6 7-6 16 0 23z m22-192c-106 0-192 86-192 192 0 106 86 192 192 192 106 0 192-86 192-192 0-106-86-192-192-192z m0 31c89 0 161 72 161 161 0 89-72 161-161 161-89 0-161-72-161-161 0-89 72-161 161-161z"/>
<glyph glyph-name="state-future" unicode="&#57403;" d="M256 64c-106 0-192 86-192 192 0 106 86 192 192 192 106 0 192-86 192-192 0-106-86-192-192-192z m0 31c89 0 161 72 161 161 0 89-72 161-161 161-89 0-161-72-161-161 0-89 72-161 161-161z"/>
<glyph glyph-name="state-in-process" unicode="&#57404;" d="M256 64c-106 0-192 86-192 192 0 106 86 192 192 192 106 0 192-86 192-192 0-106-86-192-192-192z m64 192c0-18 14-32 32-32 18 0 32 14 32 32 0 18-14 32-32 32-18 0-32-14-32-32z m-96 0c0-18 14-32 32-32 18 0 32 14 32 32 0 18-14 32-32 32-18 0-32-14-32-32z m-96 0c0-18 14-32 32-32 18 0 32 14 32 32 0 18-14 32-32 32-18 0-32-14-32-32z"/>
<glyph glyph-name="state-success" unicode="&#57405;" d="M256 91c91 0 165 74 165 165 0 91-74 165-165 165-91 0-165-74-165-165 0-91 74-165 165-165z m0-27c-106 0-192 86-192 192 0 106 86 192 192 192 106 0 192-86 192-192 0-106-86-192-192-192z m84 262l-123-117-44 51c-6 7-16 8-23 3-7-6-8-16-2-22l55-65c6-7 17-8 24-1l136 129c7 6 7 16 0 22-6 6-16 6-23 0z"/>
<glyph glyph-name="state-warning" unicode="&#57406;" d="M278 180c0-12-10-22-22-22-12 0-22 10-22 22 0 11 10 21 22 21 12 0 22-10 22-21z m-6 52c0-8-7-15-16-15-9 0-16 7-16 15l0 130c0 8 7 15 16 15 9 0 16-7 16-15z m-16-168c-106 0-192 86-192 192 0 106 86 192 192 192 106 0 192-86 192-192 0-106-86-192-192-192z m0 31c89 0 161 72 161 161 0 89-72 161-161 161-89 0-161-72-161-161 0-89 72-161 161-161z"/>
<glyph glyph-name="ticket-electronic" unicode="&#57407;" d="M270 113l35 35c6 5 15 5 20 0 6-6 6-15 0-21l-59-59c-5-5-14-5-20 0l-59 59c-6 6-6 15 0 21 5 5 14 5 20 0l35-35 0 107c0 8 6 15 14 15 8 0 14-7 14-15z m142 234c31-24 44-65 32-102-13-37-48-63-87-62l-30 0c-8 0-14 6-14 14 0 8 6 14 14 14l30 0c27 0 51 17 60 43 8 25-1 54-22 70-22 16-51 17-74 1-8-5-20-1-22 10-10 52-58 89-112 84-53-5-94-49-95-103 0-54 41-99 94-104 8-1 13-8 13-16-1-8-8-14-16-13-68 7-119 65-119 133 1 69 53 125 121 131 62 6 118-32 137-89 30 12 64 8 90-11z"/>
<glyph glyph-name="ticket-instant" unicode="&#57408;" d="M337 304c10 0 20-6 25-15 5-9 4-19-1-28l-117-191c-7-11-23-6-23 6l0 132-43 0c-11 0-20 6-25 15-5 8-5 19 1 28l117 191c6 11 22 6 22-6l0-132z m4-31c0 2 1 3 0 5-1 1-2 2-4 2l-56 0c-6 0-12 5-12 12l0 102-95-155c-1-2-1-3 0-5 1-1 2-2 4-2l55 0c7 0 12-5 12-12l0-102z"/>
<glyph glyph-name="ticket-mobile" unicode="&#57409;" d="M344 414c0 4-3 7-7 7l-162 0c-4 0-7-3-7-7l0-316c0-4 3-7 7-7l162 0c4 0 7 3 7 7z m27 0l0-316c0-19-15-34-34-34l-162 0c-19 0-34 15-34 34l0 316c0 19 15 34 34 34l162 0c19 0 34-15 34-34z m-139-17c0 6 5 10 11 10l53 0c6 0 10-4 10-10 0-6-4-11-10-11l-53 0c-6 0-11 5-11 11z m-26 0c0 6 4 10 10 10 6 0 11-4 11-10 0-6-5-11-11-11-6 0-10 5-10 11z m31-266c0 10 9 18 19 18l0 0c10 0 19-8 19-18 0-11-9-19-19-19l0 0c-10 0-19 8-19 19z"/>
<glyph glyph-name="ticket-note" unicode="&#57410;" d="M306 113l93 93-84 0c-5 0-9-4-9-9z m114 122l0 175c0 5-5 10-10 10l-308 0c-5 0-10-5-10-10l0-308c0-5 5-10 10-10l175 0 0 105c0 21 17 38 38 38z m-138-171l-180 0c-21 0-38 17-38 38l0 308c0 21 17 38 38 38l308 0c21 0 38-17 38-38l0-180c0-10-4-19-11-27l-128-128c-8-7-17-11-27-11z m-109 261c-8 0-14 6-14 14 0 8 6 14 14 14l190 0c8 0 14-6 14-14 0-8-6-14-14-14z m0-71c-8 0-14 6-14 14 0 8 6 14 14 14l83 0c8 0 14-6 14-14 0-8-6-14-14-14z"/>
<glyph glyph-name="ticket-pdf" unicode="&#57411;" d="M305 420l0-65c0-5 4-9 9-9l68 0c-1 1-2 3-3 4l-74 70c0 0 0 0 0 0z m-25 3l-125 0c-7 0-13-2-18-7-5-4-7-10-7-16l0-288c0-13 11-23 25-23l202 0c14 0 25 11 25 23l0 209-68 0c-19 0-34 15-34 34z m127-81l0-230c0-27-22-48-50-48l-202 0c-27 0-50 21-50 48l0 288c0 13 5 25 15 34 9 9 22 14 35 14l141 0c10 0 19-4 26-10l74-70c7-7 11-16 11-26z"/>
<glyph glyph-name="ticket-pick-up" unicode="&#57412;" d="M108 313c11 81 83 140 165 135 82-6 146-74 146-156 0-72-49-134-118-152l-26-68c-4-11-20-11-24 0l-26 68c-77 20-128 94-117 173z m155-201l17 44c1 4 5 7 9 8 61 12 105 66 105 128-1 69-54 126-122 130-69 5-129-45-139-113-9-68 36-131 104-145 4-1 7-4 9-8z m0 119c30 0 50 9 50 22 0 16-24 33-50 33-25 0-49-17-49-33 0-13 20-22 49-22z m0-26c-45 0-75 18-75 48 0 31 36 59 75 59 40 0 75-28 75-59 0-30-30-48-75-48z m0 107c14 0 26 11 26 24 0 14-12 25-26 25-14 0-26-11-26-25 0-13 12-24 26-24z m0-26c-28 0-51 22-51 50 0 28 23 51 51 51 29 0 52-23 52-51 0-28-23-50-52-50z"/>
<glyph glyph-name="ticket-preferred" unicode="&#57413;" d="M373 411c0 5-4 10-10 10l-214 0c-6 0-10-5-10-10l0-318 95 69c13 9 31 9 44 0l95-69z m-13-342l-98 71c-4 3-8 3-12 0l-98-71c-8-6-18-7-27-2-8 4-13 13-13 22l0 322c0 20 16 37 37 37l214 0c21 0 37-17 37-37l0-322c0-9-5-18-14-22-8-5-18-4-26 2z m-104 201l-36-21c-2 0-3-1-5 0-3 1-5 4-5 7l10 40-31 26c-2 1-2 2-3 4 0 4 3 7 6 7l42 3 16 38c1 1 2 2 3 3 4 1 7 0 9-3l16-38 42-3c1 0 3-1 4-2 2-3 2-7-1-9l-31-26 9-40c1-1 1-3 0-4-2-3-6-4-9-3z"/>
<glyph glyph-name="ticket-print" unicode="&#57414;" d="M136 353l0 58c0 20 16 37 37 37l166 0c21 0 37-17 37-37l0-58 35 0c20 0 37-17 37-37l0-120c0-20-17-37-37-37l-35 0 0-82c0-7-5-13-13-13l-214 0c-8 0-13 6-13 13l0 82-35 0c-20 0-37 17-37 37l0 120c0 20 17 37 37 37z m26 0l188 0 0 58c0 6-5 11-11 11l-166 0c-6 0-11-5-11-11z m201-27l-262 0c-6 0-11-4-11-10l0-120c0-6 5-10 11-10l35 0 0 58c0 7 5 13 13 13l214 0c8 0 13-6 13-13l0-58 35 0c6 0 11 4 11 10l0 120c0 6-5 10-11 10z m-238-47c-7 0-13 6-13 13 0 7 6 13 13 13l24 0c7 0 13-6 13-13 0-7-6-13-13-13z m37-189l188 0 0 141-188 0z m34 93c-7 0-13 6-13 13 0 8 6 13 13 13l120 0c7 0 13-5 13-13 0-7-6-13-13-13z m0-47c-7 0-13 5-13 13 0 7 6 13 13 13l84 0c7 0 13-6 13-13 0-8-6-13-13-13z"/>
<glyph glyph-name="ticket-transfer" unicode="&#57415;" d="M434 293l0-211c0-14-11-25-26-25l-108 0c-14 0-26 11-26 25l0 211c0 15 12 26 26 26l108 0c15 0 26-11 26-26z m-21 0c0 3-2 5-5 5l-108 0c-3 0-5-2-5-5l0-211c0-2 2-4 5-4l108 0c3 0 5 2 5 4z m-75-12c0 4 3 7 7 7l35 0c4 0 7-3 7-7 0-4-3-7-7-7l-35 0c-4 0-7 3-7 7z m-17 0c0 4 3 7 7 7 4 0 7-3 7-7 0-4-3-7-7-7-4 0-7 3-7 7z m21-177c0 7 5 13 12 13 7 0 13-6 13-13 0-7-6-12-13-12-7 0-12 5-12 12z m-126 23c-4-5-12-5-16 0-5 4-5 12 0 16l18 18-53 0c-34 0-65 28-65 62l0 21c0 6 5 11 11 11 6 0 12-5 12-11l0-21c0-21 20-39 42-39l53 0-18 18c-5 5-5 12 0 16 4 5 12 5 16 0l38-37c2-2 3-5 3-9 0-2-1-5-2-7-1 0-1 0-2-1z m-5 296c0 25 21 46 46 46 26 0 47-21 47-46 0-12-5-24-13-32 12-7 22-16 28-28 4-5 2-12-4-15-5-4-12-2-16 4-7 13-21 22-37 24-16 1-31-5-41-17-4-4-12-5-17-1-4 5-5 12-1 17 6 6 13 12 20 16-8 8-12 20-12 32z m46-27c15 0 27 12 27 27 0 14-12 26-27 26-14 0-26-12-26-26 0-15 12-27 26-27z m-52-105c-5 5-12 5-17 0-4-4-4-12 0-16 3-3 3-7 0-10l-10-10c-4-4-11-4-16 0l-89 89c-4 4-4 12 0 16l10 10c3 3 7 3 10 0 5-4 12-4 16 0 5 5 5 12 0 16-2 3-2 8 0 10l10 10c5 5 12 5 17 0l88-89c5-4 5-11 0-16l-9-10c-3-3-8-3-10 0z m-71 96c-3 2-7 2-9 0l-1-1-1-4c4-7 3-17-3-23-6-6-15-7-22-3l-4 0-1-1c-3-3-3-7 0-10l10-9c1-1 3-1 5 0l36 36c0 0 0 0 0 0 1 2 1 4 0 5z m28-110c2-3 7-3 9 0 2 2 2 3 1 4-4 8-2 17 4 23 6 6 15 7 22 3 1-1 3 0 5 1 2 3 2 7 0 10l-45 46c0 0 0 0 0 0-1 1-3 1-4 0l-37-37c-1-1-1-3 0-4z m-22 62c3 3 6 3 9 0l17-17c3-3 3-6 0-9-2-2-6-2-8 0l-18 18c-2 2-2 6 0 8z m10 2c-2 2-2 6 0 8 3 3 6 3 9 0l24-24c3-3 3-6 0-9-2-2-6-2-8 0z"/>
<glyph glyph-name="ticket-truck" unicode="&#57416;" d="M203 259l0-19c0-7-6-13-14-13-7 0-13 6-13 13l0 75-40 0c-37 0-67-25-67-53l0-88c0-4 6-9 14-9l13 0c7 0 13-6 13-13 0-7-6-13-13-13l-13 0c-22 0-40 15-40 35l0 88c0 44 42 79 93 79l40 0 0 24c0 22 18 40 40 40l213 0c22 0 40-18 40-40l0-133c0-7-6-13-13-13-7 0-13 6-13 13l0 133c0 8-6 14-14 14l-213 0c-7 0-13-6-13-14z m-27-147c-29 0-53 24-53 53 0 30 24 54 53 54 29 0 53-24 53-54 0-29-24-53-53-53z m0 27c15 0 27 12 27 26 0 15-12 27-27 27-15 0-27-12-27-27 0-14 12-26 27-26z m213-27c-29 0-53 24-53 53 0 30 24 54 53 54 30 0 54-24 54-54 0-29-24-53-54-53z m0 27c15 0 27 12 27 26 0 15-12 27-27 27-14 0-26-12-26-27 0-14 12-26 26-26z m-133 0c-7 0-13 6-13 13 0 7 6 13 13 13l53 0c8 0 14-6 14-13 0-7-6-13-14-13z"/>
<glyph glyph-name="ticket-zone" unicode="&#57417;" d="M243 270c-43 6-77 43-77 88 0 50 40 90 90 90 49 0 90-40 90-90 0-45-34-82-77-88l0-129c0-7-6-13-13-13-7 0-13 6-13 13z m26 108c0-11-9-20-19-20-11 0-20 9-20 20 0 10 9 19 20 19 10 0 19-9 19-19z m-13-84c35 0 64 29 64 64 0 36-29 64-64 64-35 0-64-28-64-64 0-35 29-64 64-64z m50-105c-7 1-12 8-12 15 1 7 7 12 15 11 81-9 139-36 139-74 0-46-86-77-192-77-106 0-192 31-192 77 0 38 58 65 139 74 7 1 13-4 14-11 1-8-4-14-11-15-69-7-116-29-116-48 0-25 74-51 166-51 92 0 166 26 166 51 0 19-47 41-116 48z"/>
<glyph glyph-name="ticket-guarantee" unicode="&#57418;" d="M291 441l108-62c15-9 25-26 25-44l0-60c0-97-66-188-155-210l-4-1-3 1c-89 22-155 113-155 210l0 60c0 18 9 35 25 44l108 62c16 9 35 9 51 0z m-26-347c74 20 130 98 130 181l0 60c0 8-4 15-11 19l-108 62c-7 4-15 4-22 0l-108-62c-6-4-11-11-11-19l0-60c0-83 56-161 130-181z m55 214c6 6 15 6 20 0 6-5 6-14 0-20l-90-91c-6-6-16-5-21 1l-37 46c-5 6-4 15 2 20 6 5 14 4 19-2l28-34z"/>
<glyph glyph-name="back" unicode="&#57345;" d="M173 222l103-94c10-9 10-24 0-33-10-8-26-8-35 0l-148 136c-10 9-10 23 0 33l148 135c9 9 25 9 35 0 10-9 10-24 0-33l-103-94 235 0c10 0 19-11 19-25 0-14-9-25-19-25z"/>
<glyph glyph-name="checkbox-off" unicode="&#57419;" d="M128 416c-18 0-32-14-32-32l0-256c0-18 14-32 32-32l256 0c18 0 32 14 32 32l0 256c0 18-14 32-32 32z m0 32l256 0c35 0 64-29 64-64l0-256c0-35-29-64-64-64l-256 0c-35 0-64 29-64 64l0 256c0 35 29 64 64 64z"/>
<glyph glyph-name="checkbox-on" unicode="&#57420;" d="M128 448l256 0c35 0 64-29 64-64l0-256c0-35-29-64-64-64l-256 0c-35 0-64 29-64 64l0 256c0 35 29 64 64 64z m91-225l-40 45c-7 8-19 9-27 3-9-7-11-19-3-27l53-61c8-9 21-9 29-2l131 122c8 8 8 20 0 28-8 7-20 7-28 0z"/>
<glyph glyph-name="radio-off" unicode="&#57421;" d="M256 410c-85 0-154-69-154-154 0-85 69-154 154-154 85 0 154 69 154 154 0 85-69 154-154 154z m0 38c106 0 192-86 192-192 0-106-86-192-192-192-106 0-192 86-192 192 0 106 86 192 192 192z"/>
<glyph glyph-name="radio-on" unicode="&#57422;" d="M256 64c-106 0-192 86-192 192 0 106 86 192 192 192 106 0 192-86 192-192 0-106-86-192-192-192z m-29 151l-40 45c-7 8-19 9-27 3-9-7-11-19-3-27l53-61c8-9 21-9 29-2l131 122c8 8 8 20 0 28-8 7-20 7-28 0z"/>
</font>
</defs>
</svg>
